<svg id="Layer_8" data-name="Layer 8" xmlns="http://www.w3.org/2000/svg" xmlns:xlink="http://www.w3.org/1999/xlink" viewBox="0 0 85.88 59.25"><defs><style>.cls-1{fill:url(#linear-gradient);}.cls-2,.cls-3{fill:none;}.cls-2,.cls-3,.cls-7{stroke:#000;stroke-miterlimit:10;stroke-width:0.5px;}.cls-3{stroke-linecap:round;}.cls-4{fill:url(#linear-gradient-2);}.cls-5{fill:url(#linear-gradient-3);}.cls-6{fill:url(#linear-gradient-4);}.cls-7{fill:#fff;}.cls-8{fill:#7d6aff;}.cls-9{fill:#2b2b77;}.cls-10{fill:#080055;}.cls-11{fill:#ed4343;}.cls-12{fill:url(#linear-gradient-5);}</style><linearGradient id="linear-gradient" x1="35.78" y1="19.63" x2="84.3" y2="19.63" gradientUnits="userSpaceOnUse"><stop offset="0" stop-color="#9d1859"/><stop offset="0.2" stop-color="#9a1857"/><stop offset="0.36" stop-color="#901651"/><stop offset="0.5" stop-color="#7f1348"/><stop offset="0.64" stop-color="#67103a"/><stop offset="0.77" stop-color="#480b29"/><stop offset="0.9" stop-color="#220513"/><stop offset="1"/></linearGradient><linearGradient id="linear-gradient-2" x1="18.22" y1="48.28" x2="56.98" y2="15.76" gradientUnits="userSpaceOnUse"><stop offset="0"/><stop offset="0.02" stop-color="#09020c"/><stop offset="0.08" stop-color="#2e0a3c"/><stop offset="0.15" stop-color="#4b1163"/><stop offset="0.21" stop-color="#60157e"/><stop offset="0.26" stop-color="#6d188f"/><stop offset="0.3" stop-color="#711995"/><stop offset="0.36" stop-color="#721996"/><stop offset="0.76" stop-color="#75199b"/><stop offset="0.84" stop-color="#86197f"/><stop offset="0.94" stop-color="#971863"/><stop offset="1" stop-color="#9d1859"/></linearGradient><linearGradient id="linear-gradient-3" x1="65.78" y1="17.38" x2="61.83" y2="24.21" gradientUnits="userSpaceOnUse"><stop offset="0"/><stop offset="0.11" stop-color="#0d0311"/><stop offset="0.33" stop-color="#2f0a3e"/><stop offset="0.63" stop-color="#651685"/><stop offset="0.69" stop-color="#711995"/><stop offset="0.92" stop-color="#741999"/><stop offset="0.96" stop-color="#75199b"/></linearGradient><linearGradient id="linear-gradient-4" x1="29.61" y1="48.13" x2="70.16" y2="48.13" gradientTransform="matrix(1.01, 0.65, -0.62, 0.96, 28.84, -39.94)" gradientUnits="userSpaceOnUse"><stop offset="0" stop-color="#ff8000"/><stop offset="0.2" stop-color="#fc7e03"/><stop offset="0.36" stop-color="#f3770d"/><stop offset="0.5" stop-color="#e46c1e"/><stop offset="0.64" stop-color="#cf5c36"/><stop offset="0.78" stop-color="#b34755"/><stop offset="0.91" stop-color="#922e7b"/><stop offset="1" stop-color="#75199b"/></linearGradient><linearGradient id="linear-gradient-5" x1="44.75" y1="22.95" x2="52.72" y2="22.95" gradientTransform="translate(-0.17 0.37) rotate(-0.44)" gradientUnits="userSpaceOnUse"><stop offset="0"/><stop offset="0.02" stop-color="#09020c"/><stop offset="0.08" stop-color="#2e0a3c"/><stop offset="0.15" stop-color="#4b1163"/><stop offset="0.21" stop-color="#60157e"/><stop offset="0.26" stop-color="#6d188f"/><stop offset="0.3" stop-color="#711995"/><stop offset="0.36" stop-color="#721996"/><stop offset="0.78" stop-color="#75199b"/><stop offset="0.84" stop-color="#771998"/><stop offset="0.89" stop-color="#7d198d"/><stop offset="0.94" stop-color="#88197c"/><stop offset="0.98" stop-color="#961864"/><stop offset="1" stop-color="#9d1859"/></linearGradient></defs><title>batfish_</title><path class="cls-1" d="M54,34c.47-2.05,2.53-7.9,11.15-5.49,0,0-1.68-6.95,12.61-6.95A17.18,17.18,0,0,1,84.3,5.32s-18.13,5.2-21.37,1.83c0,0-14.63,24.55-27.15,24.55a15.94,15.94,0,0,0,6.15,1.36C47.69,33.75,54,34,54,34Z"/><path class="cls-2" d="M54,33.66c.46-2,2.53-7.53,11.15-5.12,0,0-1.68-6.94,12.61-6.94A17.2,17.2,0,0,1,84.32,5.4S66.19,10.6,63,7.24c0,0-15.33,24.57-27.86,24.57"/><path class="cls-3" d="M63,7.24C62,9.09,64.86,29.1,61,33"/><path class="cls-3" d="M63,7.57s.21,9.46,14.82,14"/><path class="cls-3" d="M49.33,33.75S59.81,27,63,7.47"/><path class="cls-4" d="M67.12,27.85c-6.24-6.2-11.82-5.88-18.51-6,0,0-5.33-.42-7.56-.49-2.28-.4-3.32-.55-3.52-1-.22-1,3-2.59,3-2.59s4.63,0,4.44-1.65c.52-3.94-5.28-3.38-5.28-3.38s1-3.21,1.35-4.73c.23-.91.74-1.52.66-2.47a3.64,3.64,0,0,0-.48-1.58,2,2,0,0,0-.66-.68,2.2,2.2,0,0,0-.78-.31.57.57,0,0,0-.57.17,1.44,1.44,0,0,0-.18.54,2.08,2.08,0,0,1-.32.56l-.28.44c-.26.39-.54.77-.83,1.13A31.14,31.14,0,0,1,31.92,10a8.89,8.89,0,0,0-4.32,4.8,27.6,27.6,0,0,0-.74,2.7,12.69,12.69,0,0,0-.31,3.28c0,.21-.11.64,0,.78a17.07,17.07,0,0,0,.17,1.74,7.17,7.17,0,0,1-4.12-5.22c-3.13,2.22-20.94-2.76-20.94-2.76,7.25,5.63,0,13.25,0,13.25,12.13,0,16.25,8.63,16.25,8.63a34.1,34.1,0,0,1,4.15-1.82,9.15,9.15,0,0,1,4.47-.26,7.86,7.86,0,0,1,3.11,1.31A13.18,13.18,0,0,1,32,39.32c.73,1,1.48,1.92,2.26,2.85s1.67,1.94,2.55,2.87,2.31,2.1,3.28,3a72.76,72.76,0,0,0,6.92,5,29.08,29.08,0,0,0,9.88,3.29,18.14,18.14,0,0,0,7.65-.72A8.79,8.79,0,0,0,69,51.91a20.74,20.74,0,0,0-1.86-24.06Z"/><path class="cls-5" d="M59,22.56A14,14,0,0,0,63,21a37.26,37.26,0,0,0,3.67-3.09s-1.08,2.37-.56,3.62a2.86,2.86,0,0,1-1.91,3.7"/><path d="M58.92,22.35A13.55,13.55,0,0,0,63,20.58c1.21-.85,2.22-2,3.4-3h0a.35.35,0,0,1,.49,0,.34.34,0,0,1,0,.37h0a9.16,9.16,0,0,0-.65,1.91,3.62,3.62,0,0,0-.09,1,2.11,2.11,0,0,0,.09.45,4.42,4.42,0,0,1,.14.55,3.43,3.43,0,0,1-.49,2.16,2.59,2.59,0,0,1-1.77,1.25.12.12,0,0,1-.14-.1.12.12,0,0,1,.09-.14,2.32,2.32,0,0,0,1.51-1.19A3,3,0,0,0,65.94,22a2.69,2.69,0,0,0-.14-.46,2,2,0,0,1-.14-.58,4.62,4.62,0,0,1,0-1.12,10.1,10.1,0,0,1,.6-2.1l.55.41h0c-1.16.93-2.22,2.06-3.53,2.92A13.91,13.91,0,0,1,59,22.78a.22.22,0,0,1-.27-.16A.23.23,0,0,1,58.92,22.35Z"/><path class="cls-6" d="M29.43,25.05c2.27-3.51,14.48,5.87,24.8,3.58S74.64,45,70.48,51.42s-15.82,6.39-26-.18S25.28,31.52,29.43,25.05Z"/><circle class="cls-7" cx="58.5" cy="35.19" r="3"/><path class="cls-8" d="M61.87,27.7a18,18,0,0,0-8-3.19C51,24,48,23.87,45,23.62A35.35,35.35,0,0,1,36,22a10.93,10.93,0,0,1-2.11-1,4.66,4.66,0,0,1-1.7-1.66A3.07,3.07,0,0,1,32,17a4.13,4.13,0,0,1,1.25-2h0a.22.22,0,0,1,.29.33,3.14,3.14,0,0,0-.8,3.78,6.49,6.49,0,0,0,3.54,2.27,32.91,32.91,0,0,0,8.81,1.27c3,.12,6,.12,9.07.53a19.48,19.48,0,0,1,8.76,3.14h0a.86.86,0,0,1-1,1.4Z"/><path d="M37.34,20.45a1.5,1.5,0,0,1,.14-.58,1.84,1.84,0,0,1,.3-.49,4.68,4.68,0,0,1,.76-.78,5.7,5.7,0,0,1,1.91-1,11.26,11.26,0,0,1,2.11-.37,3.89,3.89,0,0,0,1.86-.56c.37-.33.34-1.13.2-1.71a2.79,2.79,0,0,0-1.11-1.45,4.41,4.41,0,0,0-1.89-.4,17.28,17.28,0,0,0-2,0h0l-.46,0,0-.42a11.91,11.91,0,0,1,.65-2.37c.27-.75.55-1.48.84-2.22A11.9,11.9,0,0,0,41.4,6a5.25,5.25,0,0,0,.09-.55,2,2,0,0,0,0-.49A2.09,2.09,0,0,0,41,4a4.74,4.74,0,0,0-.8-.75c-.3-.21-.63-.36-.8-.26s-.29.47-.39.84A5.24,5.24,0,0,1,38.5,5,11.67,11.67,0,0,1,35,8.32c-1.32.9-2.74,1.58-4,2.47a8.66,8.66,0,0,0-1.7,1.55,12,12,0,0,0-1.22,2,15.74,15.74,0,0,0-1.26,9.12.12.12,0,0,1-.09.12.1.1,0,0,1-.12-.09,16.14,16.14,0,0,1,1.16-9.3A11.74,11.74,0,0,1,29,12.1a9.14,9.14,0,0,1,1.76-1.64c1.29-.94,2.71-1.64,4-2.53A11.15,11.15,0,0,0,38,4.73a4.49,4.49,0,0,0,.44-1c.06-.19.1-.39.18-.59a1.12,1.12,0,0,1,.49-.61,1,1,0,0,1,.8,0,2.67,2.67,0,0,1,.58.31,5.7,5.7,0,0,1,.93.84,2.74,2.74,0,0,1,.61,1.17,2.21,2.21,0,0,1,0,.68A6,6,0,0,1,42,6.1a12.54,12.54,0,0,1-.75,2.29c-.28.74-.55,1.47-.8,2.21a11.32,11.32,0,0,0-.58,2.17l-.41-.37h0a8.86,8.86,0,0,1,2.18-.05,4.91,4.91,0,0,1,2.19.56,2.92,2.92,0,0,1,.92,4.16,4.32,4.32,0,0,1-2.16.61,11.38,11.38,0,0,0-2,.28,5.61,5.61,0,0,0-1.81.91,2.68,2.68,0,0,0-1.13,1.55v.05a.13.13,0,0,1-.15.12A.12.12,0,0,1,37.34,20.45Z"/><path d="M23,18.25a6.59,6.59,0,0,1-1.29,3,10.6,10.6,0,0,1-2.31,2.18,22.3,22.3,0,0,1-5.56,2.74,47.29,47.29,0,0,1-5.93,1.62c-2,.41-4,.73-6.07.94l0-.31a60.63,60.63,0,0,0,6-1.09,46.6,46.6,0,0,0,5.83-1.75,22.19,22.19,0,0,0,5.31-2.78A7.16,7.16,0,0,0,22,18.13Z"/><path d="M18,37.15a85.6,85.6,0,0,0,3.24-9.32,41.74,41.74,0,0,0,1-4.79,11,11,0,0,0-.13-4.72l.78-.26a11.46,11.46,0,0,1,0,5.08A43.3,43.3,0,0,1,21.7,28a86,86,0,0,1-3.54,9.25Z"/><path d="M28.14,24.05a7.55,7.55,0,0,1-3.89-2,6.48,6.48,0,0,1-2-4.06l.83.32h0a3.12,3.12,0,0,1-1.42.71,7.78,7.78,0,0,1-1.41.18,19.45,19.45,0,0,1-2.76-.08,52.71,52.71,0,0,1-5.35-.84c-3.53-.73-7-1.65-10.45-2.69h0L2,15.1A9.26,9.26,0,0,1,4.48,18a7,7,0,0,1,.74,3.8,10.07,10.07,0,0,1-1.11,3.69,14.58,14.58,0,0,1-2.18,3.16h0l-.14-.31a20.73,20.73,0,0,1,9.41,2.14,17.18,17.18,0,0,1,4,2.78,14.7,14.7,0,0,1,3,3.83h0l-.2-.06a13.29,13.29,0,0,1,7.26-2.15,8.36,8.36,0,0,1,6.53,3.62v0c1.44,1.79,2.81,3.63,4.37,5.31A54,54,0,0,0,41,48.61a31.25,31.25,0,0,0,11.86,6.61,24.12,24.12,0,0,0,6.76.81,12.46,12.46,0,0,0,6.49-1.66,11.6,11.6,0,0,0,4-5.33,20.3,20.3,0,0,0,1.58-6.6A20.63,20.63,0,0,0,68.31,29.5a16.91,16.91,0,0,0-11.23-7,39.74,39.74,0,0,0-6.82-.43c-2.3,0-4.6-.11-6.89-.35a26.1,26.1,0,0,1-6.8-1.33,4.27,4.27,0,0,1-2.73-2.25,2.59,2.59,0,0,1,.09-1.86A3.63,3.63,0,0,1,35,14.83h0a.25.25,0,0,1,.31.39,3.05,3.05,0,0,0-.93,1.28A2.08,2.08,0,0,0,34.31,18,3.75,3.75,0,0,0,36.75,20a25.63,25.63,0,0,0,6.67,1.32c2.27.24,4.56.33,6.84.35a41,41,0,0,1,6.9.45,17.37,17.37,0,0,1,11.51,7.19,21.15,21.15,0,0,1,3.46,13.21,20.55,20.55,0,0,1-1.63,6.72,18.36,18.36,0,0,1-1.66,3.05,9.21,9.21,0,0,1-2.49,2.45,12.82,12.82,0,0,1-6.69,1.71,24.43,24.43,0,0,1-6.86-.83,31.73,31.73,0,0,1-12-6.7,53.41,53.41,0,0,1-4.93-4.82c-1.57-1.69-2.94-3.54-4.37-5.33h0v0a8.16,8.16,0,0,0-2.72-2.47,8.07,8.07,0,0,0-3.55-1,13,13,0,0,0-7.1,2.09l-.14.08-.07-.14h0A14.5,14.5,0,0,0,15,33.53a17.34,17.34,0,0,0-3.91-2.72,20.29,20.29,0,0,0-9.26-2.06H1.37l.29-.31h0a14.69,14.69,0,0,0,2.08-3.09,9.72,9.72,0,0,0,1-3.54A6.47,6.47,0,0,0,4,18.27a8.79,8.79,0,0,0-2.41-2.74L.51,14.67l1.36.38h0c3.44,1,6.93,1.81,10.44,2.46a50.18,50.18,0,0,0,5.29.73,19.13,19.13,0,0,0,2.62,0,3.89,3.89,0,0,0,2.21-.66h0l.82-.6v.92a5.69,5.69,0,0,0,1.42,3.7,7.17,7.17,0,0,0,3.5,2.24h0a.09.09,0,0,1,.07.11A.1.1,0,0,1,28.14,24.05Z"/><circle cx="58.5" cy="35.19" r="1"/><ellipse class="cls-7" cx="69.5" cy="33.69" rx="1.98" ry="2.52" transform="translate(-5 13.32) rotate(-10.57)"/><circle cx="69.65" cy="33.64" r="1"/><path d="M49.55,34.1a12.26,12.26,0,0,0-1.78-.24,3,3,0,0,0-1.66.42A3.16,3.16,0,0,0,45,35.56a7,7,0,0,0-.35.79l-.23.86a.26.26,0,0,1-.15.16,8,8,0,0,0-2.36,1.48A2.53,2.53,0,0,0,41,41.22a4.69,4.69,0,0,0,1.46,2.33c.37.3.69.66,1.08.94l1.17.87a15.14,15.14,0,0,1-2.44-1.61,4.88,4.88,0,0,1-1.69-2.44,4.14,4.14,0,0,1,0-.79,5.36,5.36,0,0,1,.18-.77,4.31,4.31,0,0,1,.89-1.25,7.53,7.53,0,0,1,2.55-1.56L44,37.1l.27-.89a6.66,6.66,0,0,1,.39-.86A3.59,3.59,0,0,1,46,34a3.08,3.08,0,0,1,1.83-.34A9.55,9.55,0,0,1,49.55,34.1Z"/><path d="M47.15,33a11.1,11.1,0,0,0-1.77-.3,3,3,0,0,0-1.67.38,3.12,3.12,0,0,0-1.15,1.24,6.28,6.28,0,0,0-.37.79l-.26.84a.23.23,0,0,1-.14.16,6.52,6.52,0,0,0-2.24,1.51A2.41,2.41,0,0,0,39,40a5.09,5.09,0,0,0,.61,1.21,11.22,11.22,0,0,0,.92,1c.35.3.66.66,1,.94l1.11.87a16.29,16.29,0,0,1-2.35-1.61,11,11,0,0,1-1-1,4.68,4.68,0,0,1-.73-1.29,2.86,2.86,0,0,1,.6-2.85,6.28,6.28,0,0,1,2.44-1.63l-.15.16.29-.89a8.22,8.22,0,0,1,.42-.84,3.43,3.43,0,0,1,1.36-1.31,3,3,0,0,1,1.84-.29A8.65,8.65,0,0,1,47.15,33Z"/><path d="M51.79,36.32A13.94,13.94,0,0,0,50,36.05a3.09,3.09,0,0,0-1.67.41,3.13,3.13,0,0,0-1.13,1.26,7.07,7.07,0,0,0-.36.79l-.24.85a.3.3,0,0,1-.16.17,7.49,7.49,0,0,0-2.37,1.25,5,5,0,0,0-.46.46,3.71,3.71,0,0,0-.33.54A1.89,1.89,0,0,0,43.22,43a4.42,4.42,0,0,0,.57,1.18,9.75,9.75,0,0,0,.92,1c.35.29.66.64,1,.91l1.11.84a16.35,16.35,0,0,1-2.34-1.55,10.54,10.54,0,0,1-1-1,4.12,4.12,0,0,1-.69-1.29,2.37,2.37,0,0,1,.06-1.51,3.81,3.81,0,0,1,.38-.65,5.33,5.33,0,0,1,.52-.54,7.16,7.16,0,0,1,2.55-1.33l-.16.17.27-.89a7.42,7.42,0,0,1,.41-.85,3.45,3.45,0,0,1,1.34-1.34A3.11,3.11,0,0,1,50,35.86,8.86,8.86,0,0,1,51.79,36.32Z"/><path class="cls-9" d="M73.08,41c-2.92-3-13.75,8.62-13.75,8.62.78.66,1.59,1.3,2.4,1.93a46.43,46.43,0,0,0,4.86,3.39c1,.6,2.31,1.51,3.57,1.29A2.35,2.35,0,0,0,72,53.84a2.78,2.78,0,0,0-.28-1.2c-.24-.43-.44-.72-.46-.76l0,0L70.33,51S76,44,73.08,41Z"/><path class="cls-10" d="M73.41,43.94a3.7,3.7,0,0,0-.9-3.64c-2.71-2.93-12.8,8.48-12.8,8.48s8,3.49,10.34,1.1a15.89,15.89,0,0,0,3.36-5.94"/><path class="cls-11" d="M70.46,51.07s7.3-8.88,2.8-11.67S59.43,49.63,59.43,49.63s10.86-11.8,13.79-8.77-2.76,10.21-2.76,10.21c2.14,1.44,2.38,4.44,0,5.25s-11-6.69-11-6.69,7.46,7.71,10.82,8c5.26.4,1.91-5,1.91-5S70.92,51.14,70.46,51.07Z"/><path class="cls-2" d="M70.39,51c1.18,1.12,2.81,2.84,2.81,4.57,0,1.38-1.28,1.94-2.49,2a6.86,6.86,0,0,1-4.17-1.65,50,50,0,0,1-6.36-5.45c-.29-.28-.57-.56-.85-.85.89.76,1.81,1.48,2.74,2.19a37.49,37.49,0,0,0,5.3,3.52c1.21.64,2.68,1.31,3.95.41A2.24,2.24,0,0,0,72,53.18a4.13,4.13,0,0,0-1.64-2.11s5.69-7.18,2.76-10.21-13.79,8.77-13.79,8.77,9.33-13,13.83-10.23-2.8,11.67-2.8,11.67"/><path class="cls-3" d="M60.67,47.9S57.92,51.79,55.34,51"/><path class="cls-12" d="M49.41,27a3.57,3.57,0,0,1-3.63-1.6,3.22,3.22,0,0,1-.59-1.6c0-.6.19-1.17.22-1.77a5.49,5.49,0,0,0-.27-1.7,12,12,0,0,1-.42-1.37c.67,0,1.59,1.09,2,1.49,1.82,1.64,3.51,3.54,6,4.17"/><path d="M49.41,27a3.6,3.6,0,0,1-2.58-.39,4.08,4.08,0,0,1-1.71-2.06A2.86,2.86,0,0,1,45,23.15a10.1,10.1,0,0,0,.16-1.26,7.63,7.63,0,0,0-.59-2.43l-.1-.33,0-.09V19h0a.42.42,0,0,1,0-.14.32.32,0,0,1,.27-.19h0a.78.78,0,0,1,.22,0,1.89,1.89,0,0,1,.68.34,7.37,7.37,0,0,1,1,.91l1.88,1.78a11.2,11.2,0,0,0,4.23,2.79l-.06.23a10.1,10.1,0,0,1-4.54-2.62c-.66-.58-1.27-1.15-1.92-1.77a8.8,8.8,0,0,0-.93-.83,1.31,1.31,0,0,0-.47-.24s-.07,0-.1,0h0a.31.31,0,0,0,.27-.17.4.4,0,0,0,0-.13h0L45,19l.08.3a8,8,0,0,1,.55,2.62c0,1-.41,1.72-.13,2.5a3.75,3.75,0,0,0,1.45,2,3.56,3.56,0,0,0,2.41.58Z"/><path d="M51.5,25.82a13,13,0,0,1-3.19-1.67,2.69,2.69,0,0,1-.35-.33,1.23,1.23,0,0,1-.22-.34.15.15,0,0,0,.16,0l0,0c0,.06,0,.11-.06.19a2.65,2.65,0,0,0-.06.42,4.91,4.91,0,0,0,0,.86,1.17,1.17,0,0,0,.22.81v0c-.29-.16-.36-.52-.43-.8a4,4,0,0,1-.06-.92,3.8,3.8,0,0,1,.05-.46c0-.08,0-.16,0-.25a1.19,1.19,0,0,1,.09-.15.24.24,0,0,1,.34,0c.21.25.15.27.27.39a2.07,2.07,0,0,0,.3.29,29.13,29.13,0,0,0,3,1.89Z"/></svg>