<svg id="Layer_8" data-name="Layer 8" xmlns="http://www.w3.org/2000/svg" xmlns:xlink="http://www.w3.org/1999/xlink" viewBox="0 0 107.33 74.83"><defs><style>.cls-1,.cls-11,.cls-6,.cls-7{stroke:#000;stroke-miterlimit:10;stroke-width:0.5px;}.cls-1{fill:url(#linear-gradient);}.cls-2{fill:url(#linear-gradient-2);}.cls-3{fill:url(#linear-gradient-3);}.cls-4{fill:url(#linear-gradient-4);}.cls-5{fill:url(#linear-gradient-5);}.cls-11,.cls-6{fill:none;}.cls-7{fill:#fff;}.cls-8{fill:url(#linear-gradient-6);}.cls-9{fill:#7d6aff;}.cls-10{fill:url(#linear-gradient-7);}.cls-11{stroke-linecap:round;}.cls-12{fill:#2b2b77;}.cls-13{fill:#080055;}.cls-14{fill:#ed4343;}</style><linearGradient id="linear-gradient" x1="76.31" y1="27.26" x2="71.73" y2="35.19" gradientUnits="userSpaceOnUse"><stop offset="0"/><stop offset="0.07" stop-color="#15030c"/><stop offset="0.21" stop-color="#3f0a23"/><stop offset="0.36" stop-color="#610f37"/><stop offset="0.52" stop-color="#7b1346"/><stop offset="0.67" stop-color="#8e1651"/><stop offset="0.83" stop-color="#991757"/><stop offset="1" stop-color="#9d1859"/></linearGradient><linearGradient id="linear-gradient-2" x1="27.67" y1="40.39" x2="82.22" y2="40.39" gradientUnits="userSpaceOnUse"><stop offset="0" stop-color="#75199b"/><stop offset="0.08" stop-color="#7c198f"/><stop offset="0.28" stop-color="#8b1877"/><stop offset="0.49" stop-color="#951866"/><stop offset="0.72" stop-color="#9b185c"/><stop offset="1" stop-color="#9d1859"/></linearGradient><linearGradient id="linear-gradient-3" x1="39.63" y1="58.79" x2="80.19" y2="58.79" gradientTransform="matrix(1.01, 0.65, -0.62, 0.96, 35.18, -46.16)" gradientUnits="userSpaceOnUse"><stop offset="0" stop-color="#ff8000"/><stop offset="0.2" stop-color="#fc7e03"/><stop offset="0.36" stop-color="#f3770d"/><stop offset="0.5" stop-color="#e46c1e"/><stop offset="0.64" stop-color="#cf5c36"/><stop offset="0.78" stop-color="#b34755"/><stop offset="0.91" stop-color="#922e7b"/><stop offset="1" stop-color="#75199b"/></linearGradient><linearGradient id="linear-gradient-4" x1="7.46" y1="30.5" x2="37.51" y2="30.5" gradientUnits="userSpaceOnUse"><stop offset="0"/><stop offset="0.41" stop-color="#711995"/><stop offset="0.97" stop-color="#75199b"/></linearGradient><linearGradient id="linear-gradient-5" x1="47.92" y1="21.87" x2="91.61" y2="21.87" gradientUnits="userSpaceOnUse"><stop offset="0" stop-color="#9d1859"/><stop offset="0.2" stop-color="#9a1857"/><stop offset="0.36" stop-color="#901651"/><stop offset="0.5" stop-color="#7f1348"/><stop offset="0.64" stop-color="#67103a"/><stop offset="0.77" stop-color="#480b29"/><stop offset="0.9" stop-color="#220513"/><stop offset="1"/></linearGradient><linearGradient id="linear-gradient-6" x1="54.12" y1="70.24" x2="54.12" y2="57.79" gradientUnits="userSpaceOnUse"><stop offset="0" stop-color="#75199b"/><stop offset="0.27" stop-color="#9b386f"/><stop offset="0.77" stop-color="#df6e1f"/><stop offset="1" stop-color="#fa8400"/></linearGradient><linearGradient id="linear-gradient-7" x1="54.84" y1="30.95" x2="61.53" y2="37.65" xlink:href="#linear-gradient"/></defs><title>Artboard 1</title><path class="cls-1" d="M68.38,33.26s3.59-1,4.59-1.91,4.22-3.58,4.22-3.58-1.22,2.67-.63,4.08.23,4.67-2.94,4.17"/><path class="cls-2" d="M77.37,38.35c-6.24-6.19-11.82-5.88-18.51-6,0,0-.1-.24-7.56-.49-7.35-.7-.5-3.6-.5-3.6s4.64,0,4.44-1.66c.52-3.94-5.27-3.37-5.27-3.37,4.25-8.62.83-8.81.83-8.81a.94.94,0,0,0-1.46-.31,16,16,0,0,1-7,6.63c-4.84,2.31-5,6.45-5,6.45L37,29.84s-1.58,1-9.38-5.32c.32.57,2.5,4.9,4.72,8.94,2.08,3.79,4.22,7.33,4.22,7.33.42.72,1.61,3.13,2.05,3.83s1.08,1.66,1.64,2.48,1.28,1.83,2,2.72,1.48,1.92,2.26,2.85,1.67,1.94,2.55,2.87,1.84,1.89,2.82,2.78,2,1.76,3.08,2.57l.73.53c.12,1.1,4.1,2.75,4.13,2.59.65.34,1.32.67,2,1a23.92,23.92,0,0,0,7.34,1.86,18,18,0,0,0,7.65-.73,8.74,8.74,0,0,0,4.44-3.71,20.74,20.74,0,0,0-1.86-24.06Z"/><path class="cls-3" d="M39.36,35.55c2.26-3.51,14.48,5.87,24.8,3.58S84.56,55.46,80.4,61.92s-15.82,6.38-26-.19S35.2,42,39.36,35.55Z"/><path class="cls-4" d="M37.51,42s-3.42-6.56-13.79-1.19c0,0-4.12-8.62-16.25-8.62,0,0,7.25-7.62,0-13.25,0,0,15.37,4.25,18.12,1.5a13.36,13.36,0,0,1,1.49,3c.34,1.28,3.59,7,4,7.69S37.51,42,37.51,42Z"/><path class="cls-5" d="M64.32,32.45c.42-1.51,2.28-5.84,10-4.05,0,0-1.51-5.14,11.35-5.14,0,0-1.8-6.89,5.89-12,0,0-16.32,3.84-19.24,1.35,0,0-13.17,18.14-24.45,18.14a17,17,0,0,0,5.54,1C58.65,32.3,64.32,32.45,64.32,32.45Z"/><path d="M36.82,40.43A53.63,53.63,0,0,0,40,45.86c1.2,1.73,2.45,3.42,3.8,5l1,1.23,1.05,1.17c.72.77,1.37,1.59,2.15,2.29l2.26,2.18,2.42,2,.61.5.65.43,1.3.87,1.29.87c.44.27.9.52,1.35.77a24.7,24.7,0,0,0,5.76,2.24,23.8,23.8,0,0,0,6.12.68,13,13,0,0,0,5.84-1.28A8,8,0,0,0,77.88,63a13.3,13.3,0,0,0,1.63-2.54,19.4,19.4,0,0,0,1.88-5.82,20.71,20.71,0,0,0,0-6.14,20.27,20.27,0,0,0-1.73-5.89,15.22,15.22,0,0,0-3.56-4.95A17.69,17.69,0,0,0,71,34.27c-3.81-1.68-8.13-1.56-12.33-1.72V32c2.11,0,4.22,0,6.35.11a20.34,20.34,0,0,1,6.29,1.31,18.31,18.31,0,0,1,5.47,3.44,16.25,16.25,0,0,1,3.88,5.2,20.46,20.46,0,0,1,1.9,6.2,21.88,21.88,0,0,1,0,6.49,20.6,20.6,0,0,1-2,6.2,14.48,14.48,0,0,1-1.77,2.79,9.2,9.2,0,0,1-2.61,2.15,13.94,13.94,0,0,1-6.42,1.41,25,25,0,0,1-6.43-.75,25.89,25.89,0,0,1-6-2.37c-.47-.26-.94-.52-1.4-.8l-1.33-.91-1.32-.91-.66-.46L52,60.61l-2.44-2.08-2.26-2.26c-.78-.73-1.43-1.58-2.14-2.37l-1-1.2-1-1.26c-1.32-1.67-2.52-3.42-3.68-5.2a54.08,54.08,0,0,1-3.08-5.56Z"/><path d="M37.37,42.39a6.74,6.74,0,0,0-2.68-2.49A8,8,0,0,0,31.08,39a15.83,15.83,0,0,0-7.25,2l-.22.11-.12-.23a14.53,14.53,0,0,0-2.92-3.7,17,17,0,0,0-3.89-2.71,20.29,20.29,0,0,0-9.22-2.07H6.9L7.28,32A14.19,14.19,0,0,0,9.37,29a9.67,9.67,0,0,0,1-3.52,6.45,6.45,0,0,0-.7-3.53,8.76,8.76,0,0,0-2.4-2.76l-1-.77,1.2.33h0a88.81,88.81,0,0,0,9.07,1.77,37.66,37.66,0,0,0,4.56.37,13.9,13.9,0,0,0,2.22-.14A3.31,3.31,0,0,0,25.16,20h0l.68-.54.32.74a17.15,17.15,0,0,0,5.58,6.87,14.84,14.84,0,0,0,4,2,16.09,16.09,0,0,0,4.47.73v.5a16.68,16.68,0,0,1-4.66-.57,15.61,15.61,0,0,1-4.3-2,17.7,17.7,0,0,1-3.57-3.13,17.82,17.82,0,0,1-2.66-4l1,.2h0a4.33,4.33,0,0,1-2.49,1,15,15,0,0,1-2.41.05,38.57,38.57,0,0,1-4.66-.56A89.45,89.45,0,0,1,7.4,19.21h0l.22-.44a9.25,9.25,0,0,1,2.53,2.92,7,7,0,0,1,.76,3.8A10.17,10.17,0,0,1,9.82,29.2a14.65,14.65,0,0,1-2.17,3.19L7.46,32a20.79,20.79,0,0,1,9.44,2.13,17.51,17.51,0,0,1,4,2.79,15,15,0,0,1,3,3.85l-.34-.11a16.31,16.31,0,0,1,7.49-2.09,7.78,7.78,0,0,1,6.73,3.63Z"/><path class="cls-6" d="M56.16,31.91l-.58,0c-16.78-.45-9.92-6.46-10.37-6.42"/><circle class="cls-7" cx="68.75" cy="45.69" r="3"/><path class="cls-6" d="M64.33,32.17c.42-1.51,2.28-5.57,10-3.78,0,0-1.51-5.14,11.35-5.14,0,0-1.8-6.89,5.89-12,0,0-16.32,3.84-19.24,1.35,0,0-13.81,18.16-25.08,18.16"/><path d="M26.06,20.53a8.91,8.91,0,0,1-2.93,5.08,20.52,20.52,0,0,1-4.81,3.19A39.11,39.11,0,0,1,13,30.92a49.21,49.21,0,0,1-5.52,1.44l-.06-.31a48.85,48.85,0,0,0,5.43-1.58A38.57,38.57,0,0,0,18,28.24,19.84,19.84,0,0,0,22.59,25a8.05,8.05,0,0,0,2.53-4.64Z"/><path d="M23.73,40.82c.69-3.36,1.24-6.75,1.63-10.15.19-1.7.32-3.41.36-5.11a15.69,15.69,0,0,0-.52-5l.77-.27a16.26,16.26,0,0,1,.42,5.25c-.09,1.73-.27,3.45-.51,5.15-.49,3.41-1.14,6.79-1.93,10.13Z"/><path d="M36.67,40.56c-1.11-1.49-2.07-3.06-3-4.64s-1.87-3.18-2.76-4.8c-1.79-3.23-3.5-6.5-5.16-9.79l.45-.22c1.62,3.31,3.27,6.61,5,9.85q1.3,2.44,2.69,4.83c.93,1.59,1.88,3.18,2.95,4.66Z"/><path d="M37.06,29.87a10.62,10.62,0,0,1,.76-5.56A7.88,7.88,0,0,1,39.46,22a12.2,12.2,0,0,1,2.3-1.65,37.09,37.09,0,0,0,4.41-3.13C47.5,16,48.73,14.61,48.83,13l.05-.84.73.38a7,7,0,0,1,2.55,2,2.59,2.59,0,0,1,.4.86,2.33,2.33,0,0,1,0,.95,7,7,0,0,1-.41,1.54c-.38.93-.74,1.82-1.09,2.74a15.26,15.26,0,0,0-.86,2.68l-.5-.46c1.48,0,2.94-.17,4.38.61A2.89,2.89,0,0,1,55,27.56a4.38,4.38,0,0,1-2.14.6,10.14,10.14,0,0,0-2.05.32,5.34,5.34,0,0,0-1.78,1,4.37,4.37,0,0,0-.69.73,1.55,1.55,0,0,0-.23.37c0,.05,0,0,0,0s0,0-.07,0l.22.45a.48.48,0,0,1-.61-.62,1.8,1.8,0,0,1,.32-.53,4.82,4.82,0,0,1,.79-.78,6,6,0,0,1,1.94-1,12.18,12.18,0,0,1,2.13-.35,4.06,4.06,0,0,0,1.89-.53c.41-.34.37-1.15.23-1.74A2.78,2.78,0,0,0,53.78,24c-1.11-.58-2.64-.35-3.94-.27l-.55,0,.05-.5a15,15,0,0,1,.76-3c.32-.94.68-1.87,1-2.78a6.9,6.9,0,0,0,.33-1.31,1.16,1.16,0,0,0,0-.52,1.47,1.47,0,0,0-.22-.47,6,6,0,0,0-2.09-1.61l.78-.47a5.56,5.56,0,0,1-1.09,2.81,11.61,11.61,0,0,1-2,2.08,33.78,33.78,0,0,1-4.61,3.13,11.37,11.37,0,0,0-2.19,1.48,7.83,7.83,0,0,0-1.55,2.07,10,10,0,0,0-.95,5.16Z"/><circle cx="69.25" cy="46.19" r="1"/><ellipse class="cls-7" cx="79.75" cy="44.19" rx="1.98" ry="2.52" transform="translate(-6.69 15.17) rotate(-10.43)"/><circle cx="80.25" cy="44.19" r="1" transform="translate(24.57 116.95) rotate(-81.41)"/><path class="cls-6" d="M58.53,43.11c-.31.15-4.56-1-4.56,4.16,0,0-7.31,4.74,2.28,7.89"/><path class="cls-6" d="M55.58,42.39c-.31.15-4.56-1-4.56,4.16,0,0-6.61,4.54,3,7.69"/><path class="cls-6" d="M61.06,44.59c-.31.15-4.56-1-4.56,4.16,0,0-7.35,4.16,2.25,7.31"/><path class="cls-8" d="M53.65,62.42a5.15,5.15,0,0,1-.24,2,4,4,0,0,1-1.74,1.8c-.35.21-.72.41-1.08.61a4.56,4.56,0,0,0-1.08.69c.57-.21,1.11-.56,1.68-.79a14.67,14.67,0,0,1,1.83-.6c.21-.05.49-.07.58.12a.48.48,0,0,1,0,.25,11.68,11.68,0,0,1-.5,2.7l2-1.62a3.32,3.32,0,0,1,.76-.51c.09,0,.21-.07.28,0a.28.28,0,0,1,.06.13c.27,1.06.36,2.27,1.17,3a8,8,0,0,0,.47-4.07,3.35,3.35,0,0,1-.08-.66,2.62,2.62,0,0,1,.11-.6l.4-1.49a7.22,7.22,0,0,0,.33-3.58A3.45,3.45,0,0,0,58,58.33a1.21,1.21,0,0,0-.9-.46,1.76,1.76,0,0,0-.79-.07,1.67,1.67,0,0,0-.63.29c-.22.12-.44.23-.65.36a15,15,0,0,0-1.39.95c-.24.18-.55.65-.42.92a1.53,1.53,0,0,1,.23,1.13C53.38,61.68,53.64,62.18,53.65,62.42Z"/><path d="M58.44,59.34a5.69,5.69,0,0,1,.18,2.78c-.14.93-.43,1.8-.64,2.7A1.74,1.74,0,0,0,58,66.1a4.75,4.75,0,0,1,.09,1.43c0,.47-.08.93-.13,1.39a3.66,3.66,0,0,1-.41,1.41h0l-.15.25-.22-.2a3.39,3.39,0,0,1-.89-1.71c-.08-.3-.14-.6-.2-.9s-.1-.72-.13-.56a5.28,5.28,0,0,0-1.42,1c-.24.19-.45.38-.71.57a7.71,7.71,0,0,0-.72.52h0l-.3.26.1-.38a12.38,12.38,0,0,0,.38-1.44L53.4,67c0-.24.15-.56.07-.65s-.37-.1-.59-.06a5.12,5.12,0,0,0-.71.18c-.47.15-.93.34-1.39.53s-.9.41-1.36.62l-.07,0s0,0-.1,0c-.08-.25,0-.16,0-.19h0l.08,0,.16-.09.32-.19.64-.38,1.29-.76A3.15,3.15,0,0,0,52.9,65a3.67,3.67,0,0,0,.5-2.79c-.12-.48-.25-.93-.41-1.43a1.54,1.54,0,0,1,.43-1.47,6.1,6.1,0,0,1,1.22-.92,4.65,4.65,0,0,1,1.4-.6,1.77,1.77,0,0,1,1.5.3A2.67,2.67,0,0,1,58.44,59.34Zm-.19.07A1.88,1.88,0,0,0,56.09,58a4.44,4.44,0,0,0-1.34.58,5.93,5.93,0,0,0-1.17.88,1.32,1.32,0,0,0-.38,1.27c.14.45.29,1,.42,1.45a3.89,3.89,0,0,1-.53,3,3.38,3.38,0,0,1-1.16,1l-1.29.77-.64.38-.32.19-.16.1-.08,0h0s.08.07,0-.18c-.12-.05-.09,0-.1,0h0c.45-.21.9-.43,1.36-.63s.93-.39,1.41-.54a5.34,5.34,0,0,1,.74-.19c.25,0,.55-.13.82.17a.56.56,0,0,1,0,.46,3.36,3.36,0,0,0-.06.36l-.08.75a12.35,12.35,0,0,1-.38,1.46l-.2-.12h0a7.77,7.77,0,0,1,.72-.56c.22-.17.45-.39.68-.59a5.18,5.18,0,0,1,1.53-1.09.38.38,0,0,1,.4.1.72.72,0,0,1,.11.3l.1.44c.07.29.14.58.22.86A3,3,0,0,0,57.54,70l-.36.06h0a6.92,6.92,0,0,0,.62-2.56,4.64,4.64,0,0,0,0-1.32,1.79,1.79,0,0,1-.14-.71,3.1,3.1,0,0,1,.12-.71,21.73,21.73,0,0,0,.67-2.67A5.41,5.41,0,0,0,58.24,59.41Z"/><path class="cls-9" d="M45.43,22.75a15.12,15.12,0,0,0-2,4.5,4.07,4.07,0,0,0,1.45,4.14,11.58,11.58,0,0,0,4.45,1.79,28.58,28.58,0,0,0,4.9.58c3.31.13,6.66-.08,10.07.06a19,19,0,0,1,5.15.87,12.11,12.11,0,0,1,4.57,2.77.86.86,0,0,1-1.19,1.23h0A10.46,10.46,0,0,0,69,36.15a17.53,17.53,0,0,0-4.72-.93c-3.29-.23-6.66-.12-10-.36a29.6,29.6,0,0,1-5.06-.76A12.35,12.35,0,0,1,44.42,32a4.74,4.74,0,0,1-1.51-2.23,5.21,5.21,0,0,1-.07-2.66A15.6,15.6,0,0,1,45,22.5a.25.25,0,0,1,.43.25Z"/><path class="cls-10" d="M63.63,35.55A13.48,13.48,0,0,1,59.8,33.8c-1-.92-4.22-3.58-4.22-3.58s1.22,2.67.63,4.08.92,4.67,4.08,4.17"/><path d="M63.6,35.65a20.52,20.52,0,0,1-2.34-.76,8.7,8.7,0,0,1-1.14-.54,4.25,4.25,0,0,1-.54-.38l-.48-.38-3.84-3L56,30h0a10.09,10.09,0,0,1,.68,2.83,3.46,3.46,0,0,1-.19,1.52,2,2,0,0,0-.12,1.2,3.65,3.65,0,0,0,1.32,2.21,3.47,3.47,0,0,0,2.56.68v0A3.62,3.62,0,0,1,57.58,38a4,4,0,0,1-1.67-2.32,2.61,2.61,0,0,1,0-1.53,2.82,2.82,0,0,0,0-1.22,9.3,9.3,0,0,0-.84-2.49h0l-.78-2,1.56,1.43,3.61,3.33.45.41a3.72,3.72,0,0,0,.44.36,8.26,8.26,0,0,0,1,.59,20.23,20.23,0,0,0,2.24.93Z"/><path d="M61.37,36.25a12.68,12.68,0,0,1-3.19-1.67,2.69,2.69,0,0,1-.35-.33,1,1,0,0,1-.22-.35.13.13,0,0,0,.16,0l0,0a1.47,1.47,0,0,0-.05.19,3.06,3.06,0,0,0-.06.42,6.6,6.6,0,0,0,0,.87,1.18,1.18,0,0,0,.22.8v0c-.29-.15-.36-.52-.43-.8a4.36,4.36,0,0,1-.07-.92,3.38,3.38,0,0,1,0-.47,1.78,1.78,0,0,1,.06-.24.88.88,0,0,1,.08-.15.24.24,0,0,1,.35,0c.2.25.15.28.27.39a2.35,2.35,0,0,0,.3.29,28.28,28.28,0,0,0,3,1.89Z"/><path class="cls-11" d="M72.38,12.64s-3.69,11.09,2,15.75"/><path class="cls-11" d="M72.38,12.89s.18,7,13.34,10.37"/><path class="cls-11" d="M60.11,32.24s9.15-5,12-19.42"/><path class="cls-12" d="M83.33,51.47c-2.92-3-13.75,8.62-13.75,8.62s8.63,7.37,11,6.57A2.44,2.44,0,0,0,82,63.14c-.24-.44-.44-.73-.46-.76l0,0-.93-.86S86.25,54.45,83.33,51.47Z"/><path class="cls-13" d="M83.66,54.44a3.7,3.7,0,0,0-.9-3.64C80,47.87,70,59.28,70,59.28s8,3.49,10.34,1.1a16,16,0,0,0,3.36-5.94"/><path class="cls-14" d="M81.66,62.45s4.11,6.12-1.16,5.72c-3.36-.33-10.82-8-10.82-8s8.66,7.5,11,6.69,2.14-3.81,0-5.25c0,0,5.69-7.18,2.76-10.21s-13.79,8.77-13.79,8.77S79,47.11,83.51,49.9s-2.8,11.67-2.8,11.67"/><path class="cls-6" d="M81.56,62.45s4.11,6.12-1.16,5.72c-3.36-.33-10.82-8-10.82-8s8.66,7.5,11,6.69c2.6-.6,2.14-3.81,0-5.25,0,0,5.69-7.18,2.76-10.21s-13.79,8.77-13.79,8.77,9.33-13,13.83-10.23-2.8,11.67-2.8,11.67"/><path class="cls-6" d="M70.92,58.4s-2.75,3.89-5.33,3.06"/></svg>