<?xml version="1.0" encoding="utf-8"?>
<!-- Generator: Adobe Illustrator 21.1.0, SVG Export Plug-In . SVG Version: 6.00 Build 0)  -->
<svg version="1.1" id="Layer_1" xmlns="http://www.w3.org/2000/svg" xmlns:xlink="http://www.w3.org/1999/xlink" x="0px" y="0px"
	 viewBox="0 0 5000 1018" style="enable-background:new 0 0 5000 1018;" xml:space="preserve">
<style type="text/css">
	.st0{fill:#FFFFFF;}
	.st1{fill:#30303C;}
	.st2{fill:#5F92C3;}
</style>
<title>dark_logo</title>
<path class="st0" d="M4589.2,244c-25.6,0-50.3,9.2-69.5,26v-26h-687.1v169.9L3713,244h-242.6v153.9c-14.7-27.9-33.8-53.2-56.6-75
	c-59-56.6-140.6-87.8-229.7-87.8s-170.8,31.1-230,87.7c-23.6,22.5-43.3,48.9-58.3,77.8V244h-604.5c-25.5,0-50.2,9.2-69.5,26v-26
	h-229.8v184.7L1856.3,244H836.6c-25.5,0-50.2,9.2-69.5,26v-26H537.3v184.7L401.5,244H0v496.5C0.1,803.7,51.3,854.9,114.5,855h306.9
	V656.5l145,198.5h200.7V456h107.7v284.5c0.1,63.2,51.3,114.5,114.5,114.5h114.5V456h106.4v277.4c0.1,67.1,54.5,121.6,121.6,121.6
	h352v-30.7c21.1,19.7,49,30.7,77.9,30.7h114.5V656.5l145,198.5h200.7V456h107.7v284.5c0.1,63.2,51.3,114.5,114.6,114.5h114.5V456
	h108.2v284.5c0.1,63.2,51.3,114.5,114.5,114.5h114.5V698.3c15,29,34.7,55.3,58.3,77.8c59.2,56.5,140.9,87.7,230,87.7
	s170.7-31.2,229.7-87.8c22.7-21.8,41.8-47.1,56.6-75V753l0.2,2.1c5.1,56.5,52.5,99.9,109.3,99.9h139.4V685.1l119.2,169.4l243,0.5
	v-36c22.8,23.1,53.9,36,86.3,36h352V456h107.8v284.5c0.1,63.2,51.3,114.5,114.5,114.5h114.5V456H5000V244H4589.2z M3250.2,622.9
	c-16.2,17.9-39.1,27.4-66,27.4c-27.3,0-50.4-9.5-66.8-27.5s-25.6-44.2-25.6-73.3c0-29.4,9.1-55.5,25.5-73.5
	c16.3-17.8,39.4-27.2,66.8-27.2c27,0,49.9,9.4,66.1,27.2c16.4,18.1,25.5,44.2,25.5,73.6C3275.7,578.7,3266.7,604.7,3250.2,622.9
	L3250.2,622.9z"/>
<path class="st1" d="M2908.7,549.5c0-156.6,118.1-266.2,275.5-266.2s274.7,109.6,274.7,266.2s-117.3,266.2-274.7,266.2
	S2908.7,706.1,2908.7,549.5z M3323.8,549.5c0-84.1-54.8-148.9-139.7-148.9c-85.7,0-140.4,64.8-140.4,148.9
	c0,83.3,54.8,148.9,140.4,148.9C3269.1,698.4,3323.9,632.8,3323.8,549.5L3323.8,549.5z"/>
<path class="st1" d="M1635.7,407.9V292.1h-377.3v441.2c0,40.6,32.9,73.5,73.5,73.5h303.9V691.1h-244.6v-87.2h239.2V488.1h-239.2
	v-80.2H1635.7z"/>
<path class="st1" d="M2291.4,292.1c-32,0-57.9,25.9-57.9,57.9v57.8h144.3v332.6c0,36.6,29.7,66.4,66.4,66.4l0,0h66.4v-399H2654
	V292.1H2291.4z"/>
<path class="st1" d="M48.1,292.1v448.3c0,36.6,29.7,66.4,66.4,66.4h66.4V292.1H48.1z"/>
<path class="st1" d="M585.5,292.1v283.2L377.1,292.1H240.5v448.3c0,36.6,29.7,66.4,66.4,66.4h66.4V509l217.6,297.8H719V292.1H585.5z
	"/>
<path class="st1" d="M2040.3,292.1v283.2L1832,292.1h-136.6v448.3c0,36.6,29.7,66.4,66.4,66.4h66.4V509l217.6,297.9h128.1V292.1
	H2040.3z"/>
<path class="st1" d="M836.6,292.1c-32,0-57.9,25.9-57.9,57.9v0v57.8h144.3v332.6c0,36.6,29.7,66.4,66.4,66.4h66.4v-399h143.5V292.1
	H836.6z"/>
<path class="st1" d="M2715,292.1v448.3c0,36.6,29.7,66.4,66.4,66.4l0,0h66.4V292.1H2715z"/>
<path class="st2" d="M4471.6,407.9V292.1h-377.3v441.2c0,40.6,32.9,73.5,73.5,73.5l0,0h303.9V691.1H4227v-87.2h239.2V488.1H4227
	v-80.2H4471.6z"/>
<path class="st2" d="M4589.2,292.1c-32,0-57.9,25.9-57.9,57.9c0,0,0,0,0,0v57.8h144.3v332.6c0,36.6,29.7,66.4,66.4,66.4c0,0,0,0,0,0
	h66.4v-399h143.5V292.1H4589.2z"/>
<polygon class="st1" points="3957,292.1 3880.8,292.1 3880.8,566 3957,674.3 "/>
<path id="Left" class="st1" d="M3957,806.8l-362.2-514.7h-76.3v458.7c2.9,31.7,29.5,56,61.3,56h76.5c-34,0-61.5-27.6-61.5-61.5
	V424.6l76.2,108.4l0,0l192.4,273.4L3957,806.8z"/>
<path class="st2" d="M3671.1,533l-76.3-108.4v320.7c0,34,27.5,61.5,61.5,61.5h14.7L3671.1,533L3671.1,533z"/>
<polygon class="st2" points="3957,292.1 3957,674.3 3688.1,292.1 3594.8,292.1 3957,806.8 4033.3,806.8 4033.3,292.2 "/>
</svg>
