<?xml version="1.0" encoding="UTF-8"?>
<svg width="249px" height="59px" viewBox="0 0 249 59" version="1.1" xmlns="http://www.w3.org/2000/svg" xmlns:xlink="http://www.w3.org/1999/xlink">
    <!-- Generator: Sketch 59.1 (86144) - https://sketch.com -->
    <title>Cumulus-networks-logo-gradient</title>
    <desc>Created with Sketch.</desc>
    <defs>
        <linearGradient x1="131.5%" y1="50%" x2="-7.4%" y2="50%" id="linearGradient-1">
            <stop stop-color="#2FA86F" offset="0%"></stop>
            <stop stop-color="#68C36D" offset="100%"></stop>
        </linearGradient>
        <linearGradient x1="91%" y1="-1.30662117%" x2="40.9%" y2="50%" id="linearGradient-2">
            <stop stop-color="#24A370" offset="0%"></stop>
            <stop stop-color="#5EBE6D" offset="100%"></stop>
        </linearGradient>
        <linearGradient x1="-14.521678%" y1="120.40933%" x2="77.0952062%" y2="18.1957856%" id="linearGradient-3">
            <stop stop-color="#24A370" offset="0%"></stop>
            <stop stop-color="#62C06D" offset="100%"></stop>
        </linearGradient>
    </defs>
    <g id="Intentionet---2020-Spring" stroke="none" stroke-width="1" fill="none" fill-rule="evenodd">
        <g id="Home---3" transform="translate(-398.000000, -3468.000000)">
            <g id="Group-11-Copy" transform="translate(0.000000, 3170.000000)">
                <g id="Group-3" transform="translate(350.000000, 177.000000)">
                    <g id="Group-9" transform="translate(43.000000, 96.000000)">
                        <g id="Cumulus-networks-logo-gradient" transform="translate(0.500000, 0.000000)">
                            <rect id="Rectangle_1080" x="0" y="0" width="252.596685" height="105"></rect>
                            <path d="M154.974923,51.9120062 L154.974923,35.7472702 L159.932944,35.7472702 L159.932944,51.5752408 C159.932944,56.8557212 162.577222,59.4892261 167.03944,59.4892261 C171.501659,59.4892261 174.145936,57.0140009 174.145936,51.7335205 L174.145936,35.7371673 L179.103957,35.7371673 L179.103957,51.5752408 C179.103957,59.8259915 174.311204,64.1163823 167.03944,64.1163823 C159.600723,64.1180656 154.974923,59.9943741 154.974923,51.9120062 Z M100.438383,51.9120062 L100.438383,35.7472702 L105.396404,35.7472702 L105.396404,51.5752408 C105.396404,56.8557212 108.040681,59.4892261 112.5029,59.4892261 C116.965118,59.4892261 119.609396,57.0140009 119.609396,51.7335205 L119.609396,35.7371673 L124.567417,35.7371673 L124.567417,51.5752408 C124.567417,59.8259915 119.774663,64.1163818 112.5029,64.1163818 C105.231136,64.1163818 100.436697,59.9943741 100.436697,51.9120062 L100.438383,51.9120062 Z M34.8373618,51.9120062 L34.8373618,35.7472702 L39.7953824,35.7472702 L39.7953824,51.5752408 C39.7953824,56.8557212 42.4396601,59.4892261 46.9018787,59.4892261 C51.3640972,59.4892261 54.0083749,57.0140009 54.0083749,51.7335205 L54.0083749,35.7371673 L58.9663955,35.7371673 L58.9663955,51.5752408 C58.9663955,59.8259915 54.1736422,64.1163818 46.9018787,64.1163818 C39.6301151,64.1163818 34.8272434,59.9943741 34.8272434,51.9120062 L34.8373618,51.9120062 Z M4.91553873,49.7634433 C4.82684878,45.9993907 6.23987082,42.3544255 8.84355254,39.6309237 C11.4472343,36.9074219 15.0281404,35.328641 18.7979965,35.2421222 L19.2937985,35.2421222 C23.4469368,35.1126385 27.4639494,36.7289629 30.3667112,39.6975276 L27.2266315,43.1561075 C25.2148534,41.0180384 22.396982,39.8207751 19.4590659,39.8558073 C13.9910197,40.2373388 9.85698065,44.954741 10.2040941,50.4167681 C10.4656151,55.3454421 14.3631005,59.3077317 19.2937985,59.6576088 C22.3362778,59.6442484 25.2251065,58.3210984 27.2198859,56.0272785 L30.3599656,59.1625638 C27.5288794,62.4830904 23.3194976,64.310462 18.9565182,64.1130141 C15.2322075,64.1143547 11.6600492,62.6377307 9.02656368,60.0082662 C6.39307813,57.3788016 4.91419607,53.8120976 4.91553873,50.0934734 L4.91553873,49.7634433 Z M183.729757,59.6576088 L186.539302,56.0272785 C188.903632,58.2854119 192.027567,59.5801598 195.298471,59.6576088 C198.273284,59.6576088 200.256492,58.3374887 200.256492,56.0272785 C200.256492,54.0470984 199.099621,53.0570083 193.976333,51.7368882 C188.026708,50.4167681 184.721361,48.6016029 184.721361,43.4861376 C184.721361,38.7007022 188.853045,35.4037696 194.1416,35.4037696 C197.813802,35.2862876 201.401339,36.5194556 204.222908,38.8690849 L201.578631,42.6644301 C199.461026,40.8534373 196.764519,39.8584235 193.976333,39.8591749 C191.166788,39.8591749 189.348847,41.34431 189.348847,43.1594752 C189.348847,45.3046703 190.670985,46.1297454 195.959541,47.6148805 C201.909166,48.9350006 204.883978,51.2452108 204.883978,55.6972485 C204.883978,60.9777289 200.752294,63.9479991 194.967937,63.9479991 C190.805293,64.0334114 186.773462,62.4941826 183.729757,59.6576088 L183.729757,59.6576088 Z M65.897506,63.7829841 L65.897506,35.7371673 L71.3513286,35.7371673 L79.7833365,48.9383683 L88.2153444,35.7371673 L93.5038997,35.7371673 L93.5038997,63.6230206 L88.5458791,63.6230206 L88.5458791,43.6612555 L79.7867093,56.8624565 L79.6180692,56.8624565 L70.8538402,43.8296382 L70.8538402,63.7880356 L65.897506,63.7829841 Z M131.667167,63.6146014 L131.667167,35.7371673 L136.623501,35.7371673 L136.623501,59.1676152 L151.332296,59.1676152 L151.332296,63.6230206 L131.667167,63.6146014 Z" id="Union_116" fill="url(#linearGradient-1)" fill-rule="nonzero"></path>
                            <g id="Group_2475" transform="translate(232.248619, 26.073826)">
                                <ellipse id="Ellipse_672" cx="10.4005066" cy="10.1806544" rx="10.4005066" ry="10.1806544"></ellipse>
                            </g>
                            <g id="Group_2517" transform="translate(195.060773, 25.369128)" fill-rule="nonzero">
                                <path d="M22.5825088,32.6288718 L25.3876184,34.9689515 L0.141632183,58.3629262 L22.5825088,32.6288718 Z M34.2979664,46.5022015 L34.7929858,44.1621218 C34.9613597,43.4935276 35.2880051,42.8249334 35.9480309,42.8249334 L39.0831534,42.4838139 C39.7640326,42.3583581 40.420656,42.8017899 40.5682114,43.4867052 L40.5682114,43.4867052 C40.5682114,44.1552994 40.2314635,46.4953791 38.9181469,46.4953791 L35.618018,47.4982704 C34.9563085,47.3311218 34.1312763,47.3311218 34.2962827,46.4953791 L34.2979664,46.5022015 Z M30.3378117,41.3205964 C28.6877473,39.983408 32.3178891,32.9631689 33.1429213,31.2916834 C35.0952294,27.8538948 37.3601475,24.6082696 39.9081856,21.5970675 C40.2449334,21.0956218 40.0765595,21.255948 39.7398117,21.4265077 C37.7493529,23.1351804 35.8750197,24.978003 34.1295925,26.9424099 C31.8195023,29.4496381 29.509412,32.2911635 29.1793991,32.7926091 C28.5193734,33.6283519 27.5293347,33.7955004 27.0343153,33.2940548 L24.0641993,30.4525294 C23.6096611,30.0830731 23.5344785,29.4113537 23.8958254,28.9481925 L24.0641993,28.7776327 L36.7696956,17.4115313 C37.0098905,17.1667639 37.3365276,17.0291322 37.6772311,17.0291322 C38.0179346,17.0291322 38.3445717,17.1667639 38.5847665,17.4115313 L40.5648439,19.2501654 C41.1656112,18.7332118 41.9220246,18.4385068 42.7099277,18.4144226 C43.2015084,18.3308364 43.703405,18.3308364 44.1949857,18.4144226 L44.1949857,16.5757886 C43.204947,15.5728973 43.0399406,13.065669 43.8582379,10.7255893 C44.5182636,8.88695523 46.9933603,6.71402408 49.1384441,7.38261828 C51.7785472,8.21836103 51.7785472,12.2299262 49.9634763,14.0685603 C48.9930921,15.2910445 47.6639525,16.1691278 46.1683281,16.5757886 L46.1683281,19.2501654 C46.5228004,19.4334179 46.8550429,19.6577884 47.1583668,19.9187596 C48.4418526,21.6399662 49.0316849,23.7909285 48.8084312,25.9361074 C48.1484054,29.9476726 44.1882507,34.2935349 42.0431669,36.2993175 C40.1935491,38.0312464 38.0751599,39.4430161 35.772922,40.4780313 C34.4453705,40.9880306 33.0592084,41.3250283 31.6477609,41.4809226 C30.8311473,41.6480711 30.5028182,41.4809226 30.336128,41.313774 L30.3378117,41.3205964 Z M51.2936303,27.2801182 C50.9579324,27.27907 50.6388945,27.1318203 50.4178348,26.875901 C50.1967752,26.6199816 50.0950491,26.2801155 50.1385852,25.9429298 L50.3069591,22.5999588 C50.3997432,21.8624038 51.0634784,21.3394636 51.7920172,21.4299189 L54.2671138,21.0887994 C54.5756777,21.0812415 54.8738229,21.2020846 55.0920742,21.4231693 C55.3103256,21.644254 55.42962,21.9462697 55.422159,22.2588393 L54.5971267,26.6047016 C54.5043426,27.3422565 53.8406075,27.8651968 53.1120687,27.7747414 L51.2936303,27.2801182 Z" id="Union_115" fill="url(#linearGradient-2)"></path>
                                <g id="Group_2476" transform="translate(37.281552, 0.196936)" fill="url(#linearGradient-3)">
                                    <path d="M10.2303996,20.3921232 C4.69243839,20.3011 0.267263871,15.6955432 0.327235572,10.0852789 C0.387207274,4.4750147 4.90979611,-0.0323941976 10.4484046,-0.00207226988 C15.9870131,0.0285569205 20.4607993,4.58546843 20.4607993,10.1960616 C20.360846,15.8498416 15.8126106,20.382811 10.2303996,20.3921232 Z M10.2303996,2.50722826 C8.20721892,2.47320743 6.25702238,3.27234918 4.82622049,4.72172567 C3.39541859,6.17110216 2.6065183,8.14661604 2.64010313,10.1960616 C2.68652554,14.4228553 6.05777469,17.8378698 10.2303996,17.8848949 C14.4224046,17.8848949 17.8206961,14.442487 17.8206961,10.1960616 C17.8206961,5.94963619 14.4224046,2.50722826 10.2303996,2.50722826 L10.2303996,2.50722826 Z" id="Path_2439"></path>
                                </g>
                            </g>
                        </g>
                    </g>
                </g>
            </g>
        </g>
    </g>
</svg>