<svg version="1.1" id="Layer_1" xmlns="http://www.w3.org/2000/svg" x="0" y="0" viewBox="0 0 263.7 41.3" xml:space="preserve"><style>.st0{fill:#fff}</style><path class="st0" d="M262.8 7.6c0 2.1-1.7 3.7-3.8 3.7-2.1 0-3.8-1.6-3.8-3.7s1.7-3.7 3.8-3.7c2.1 0 3.8 1.6 3.8 3.7m-6.6 0c0 1.6 1.2 3 2.9 3 1.6 0 2.8-1.3 2.8-2.9s-1.2-3-2.9-3c-1.6 0-2.8 1.3-2.8 2.9m2.2 1.9h-.9V5.8c.3 0 .8-.1 1.4-.1.7 0 1 .1 1.3.3.2.2.4.4.4.8 0 .5-.3.7-.8.9.4.1.5.4.7.9.1.6.2.8.3.9h-.9c-.1-.1-.2-.5-.3-.9-.1-.4-.3-.6-.8-.6h-.4v1.5zm.1-2h.4c.5 0 .9-.2.9-.5s-.2-.6-.8-.6h-.5v1.1zM14.2 27H7.4v11h-6V3.7h13.5c8 0 13 4.5 13 11.5C27.9 23 21.8 27 14.2 27m.2-17.8h-7v12.3h7c4.5 0 7.4-2.5 7.4-6.2 0-4-2.9-6.1-7.4-6.1M58.5 38l-8.4-11.9h-7.5V38h-6V3.7h15.3c7.9 0 12.7 4.2 12.7 10.9 0 5.7-3.4 9.1-8.2 10.4l9.2 13h-7.1zM51.3 9.2h-8.8v11.5h8.8c4.3 0 7.1-2.3 7.1-5.8 0-3.7-2.6-5.7-7.1-5.7m23.1-5.4V38H100v-5.4H80.4v-9.2h17.2v-5.3H80.4V9.2h19.4V3.8H74.4zm48.4 14.3c7.2 1.8 11 4.4 11 10.1 0 6.5-5 10.3-12.2 10.3-5.2 0-10.2-1.8-14.3-5.5l3.6-4.3c3.3 2.8 6.6 4.4 10.8 4.4 3.7 0 6.1-1.7 6.1-4.4 0-2.5-1.4-3.8-7.7-5.3-7.3-1.8-11.4-3.9-11.4-10.3 0-6 4.9-10 11.7-10 5 0 9 1.5 12.4 4.3l-3.2 4.5c-3.1-2.3-6.2-3.5-9.3-3.5-3.5 0-5.6 1.8-5.6 4.1 0 2.9 1.5 4.1 8.1 5.6m20.9-14.3h6v34.3h-6V3.8zM174.1 38h-12.8V3.7h12.8c10.8 0 18.2 7.4 18.2 17.1S184.8 38 174.1 38m0-28.8h-6.8v23.3h6.8c7.2 0 11.9-4.9 11.9-11.6 0-6.7-4.7-11.7-11.9-11.7m28.3-5.4h6v34.3h-6V3.8zM236.3 38.6c-10.5 0-17.8-8-17.8-17.7s7.4-17.8 17.9-17.8 17.9 8 17.9 17.7-7.4 17.8-18 17.8m0-29.9c-6.8 0-11.5 5.4-11.5 12.1S229.6 33 236.4 33 248 27.6 248 20.9s-4.9-12.2-11.7-12.2"/><path class="st0" d="M236.3 38.6c-10.5 0-17.8-8-17.8-17.7s7.4-17.8 17.9-17.8 17.9 8 17.9 17.7-7.4 17.8-18 17.8m0-29.9c-6.8 0-11.5 5.4-11.5 12.1S229.6 33 236.4 33 248 27.6 248 20.9s-4.9-12.2-11.7-12.2"/></svg>